<?xml version="1.0" encoding="UTF-8"?>
<svg id="Layer_1" data-name="Layer 1" xmlns="http://www.w3.org/2000/svg" version="1.1" viewBox="0 0 2489 2500">
  <defs>
    <style>
      .cls-1, .cls-2 {
        fill: #282728;
        stroke-width: 0px;
      }

      .cls-2 {
        fill-rule: evenodd;
      }
    </style>
  </defs>
  <path class="cls-2" d="M943.5,712.8c-22.9-51-47.1-52-68.9-52.9-17.8-.8-38.3-.7-58.7-.7s-53.6,7.7-81.6,38.3c-28.1,30.6-107.1,104.7-107.1,255.3s109.7,296.1,125,316.6c15.3,20.4,211.7,339.3,522.9,462,258.6,102,311.2,81.7,367.3,76.6s181.1-74,206.6-145.5,25.5-132.7,17.9-145.5c-7.7-12.8-28.1-20.4-58.7-35.7s-181.1-89.4-209.1-99.6-48.5-15.3-68.9,15.3c-20.4,30.6-79,99.5-96.9,119.9-17.9,20.5-35.7,23-66.3,7.7-30.6-15.4-129.2-47.6-246.1-151.9-91-81.1-152.4-181.3-170.3-212-17.9-30.6-1.9-47.2,13.4-62.5,13.7-13.7,30.6-35.7,45.9-53.6,15.3-17.9,20.4-30.6,30.6-51,10.2-20.4,5.1-38.3-2.6-53.6s-67.1-166.7-94.4-227.2h0Z"/>
  <path class="cls-1" d="M2116.2,359.4C1884.9,127.9,1577.3.4,1249.6.2,574.4.2,24.9,549.6,24.6,1224.8c0,215.8,56.3,426.5,163.5,612.2L14.4,2471.5l649.4-170.3c178.9,97.6,380.4,149,585.4,149.1h.5c675.1,0,1224.7-549.4,1225-1224.6.1-327.2-127.2-634.9-358.5-866.4h0ZM1249.6,2243.5h-.4c-182.7,0-361.9-49.2-518.2-141.9l-37.2-22.1-385.4,101,102.9-375.6-24.2-38.5c-101.9-162.1-155.7-349.4-155.7-541.7.2-561.2,456.9-1017.8,1018.6-1017.8,272,.1,527.6,106.1,719.8,298.5,192.2,192.4,298,448.1,297.9,720.1-.2,561.2-457,1017.8-1018.1,1017.8v.2Z"/>
</svg>